<svg width="1000" height="722" viewBox="0 0 1000 722" fill="none" xmlns="http://www.w3.org/2000/svg">
<ellipse cx="513.471" cy="362.714" rx="379.174" ry="282.558" fill="url(#paint0_linear_111_321)"/>
<ellipse cx="959.666" cy="110.216" rx="40.3377" ry="30.0594" fill="#93A4FF"/>
<ellipse cx="107.565" cy="40.0792" rx="53.7836" ry="40.0792" fill="#93A4FF"/>
<ellipse cx="53.7824" cy="533.063" rx="26.8918" ry="20.0396" fill="#93A4FF"/>
<ellipse cx="890.11" cy="643.262" rx="13.4459" ry="10.0198" fill="#93A4FF"/>
<path d="M591.71 385.562C588.286 388.035 586.713 391.611 587.493 395.119L599.247 443.594C600.239 447.703 597.911 451.861 593.297 454.236C588.775 456.699 582.759 456.994 577.828 455.024L519.268 432.264C517.232 431.456 514.971 431.022 512.657 430.973H509.074C507.831 431.111 506.615 431.407 505.504 431.86L446.932 454.728C444.036 455.812 440.757 456.196 437.544 455.812C429.717 454.708 424.494 449.151 425.777 443.289L437.544 394.813C438.324 391.276 436.751 387.68 433.327 385.167L385.583 350.683C381.59 347.796 380.201 343.461 382.026 339.549C383.798 335.647 388.32 332.8 393.78 332.159L459.493 325.056C464.49 324.671 468.88 322.405 471.128 319.055L500.083 274.816C500.771 273.831 501.657 272.924 502.728 272.156L503.918 271.466C504.539 270.954 505.253 270.53 506.046 270.185L507.488 269.791L509.735 269.102H515.302C520.273 269.486 524.65 271.703 526.937 275.013L556.276 319.055C558.392 322.277 562.504 324.514 567.25 325.056L632.962 332.159C638.516 332.751 643.156 335.608 644.994 339.549C646.726 343.5 645.232 347.835 641.16 350.683L591.71 385.562Z" fill="white"/>
<ellipse cx="572.797" cy="18.0354" rx="13.4459" ry="10.0198" fill="#93A4FF"/>
<ellipse cx="336.152" cy="707.403" rx="18.8242" ry="14.0277" fill="#93A4FF"/>
<ellipse cx="656.167" cy="685.359" rx="5.37836" ry="4.00792" fill="#93A4FF"/>
<ellipse cx="917.001" cy="442.879" rx="13.4459" ry="10.0198" fill="#93A4FF"/>
<ellipse cx="5.37836" cy="300.594" rx="5.37836" ry="4.00792" fill="#93A4FF"/>
<defs>
<linearGradient id="paint0_linear_111_321" x1="892.645" y1="645.272" x2="43.038" y2="314.706" gradientUnits="userSpaceOnUse">
<stop stop-color="#4B68FF"/>
<stop offset="1" stop-color="#6A82FF"/>
</linearGradient>
</defs>
</svg>
