<svg width="1000" height="1000" viewBox="0 0 1000 1000" fill="none" xmlns="http://www.w3.org/2000/svg">
<path fill-rule="evenodd" clip-rule="evenodd" d="M966.667 583.9H33.3333C14.9333 583.9 0 565.992 0 543.927C0 521.861 14.9333 503.953 33.3333 503.953H966.667C985.067 503.953 1000 521.861 1000 543.927C1000 565.992 985.067 583.9 966.667 583.9" fill="#212121"/>
<path fill-rule="evenodd" clip-rule="evenodd" d="M717.545 1000H663.99C645.59 1000 630.656 982.091 630.656 960.026C630.656 937.96 645.59 920.052 663.99 920.052H717.545C790.656 920.052 850.123 848.739 850.123 761.117V543.927C850.123 521.861 865.056 503.953 883.456 503.953C901.856 503.953 916.79 521.861 916.79 543.927V761.117C916.79 892.817 827.412 1000 717.545 1000" fill="#212121"/>
<path fill-rule="evenodd" clip-rule="evenodd" d="M337.217 1000H282.284C172.417 1000 83.0391 892.817 83.0391 761.117V543.927C83.0391 521.861 97.9724 503.953 116.372 503.953C134.772 503.953 149.706 521.861 149.706 543.927V761.117C149.706 848.739 209.172 920.052 282.284 920.052H337.217C355.617 920.052 370.55 937.96 370.55 960.026C370.55 982.091 355.617 1000 337.217 1000" fill="#212121"/>
<path fill-rule="evenodd" clip-rule="evenodd" d="M883.456 359.496C865.056 359.496 850.123 341.588 850.123 319.523V238.829C850.123 151.26 790.656 79.9473 717.545 79.9473H663.99C645.59 79.9473 630.656 62.0391 630.656 39.9737C630.656 17.9082 645.59 0 663.99 0H717.545C827.412 0 916.79 107.183 916.79 238.829V319.523C916.79 341.588 901.856 359.496 883.456 359.496" fill="#212121"/>
<path fill-rule="evenodd" clip-rule="evenodd" d="M116.372 359.496C97.9724 359.496 83.0391 341.588 83.0391 319.523V238.829C83.0391 107.183 172.417 0 282.284 0H337.217C355.617 0 370.55 17.9082 370.55 39.9737C370.55 62.0391 355.617 79.9473 337.217 79.9473H282.284C209.172 79.9473 149.706 151.26 149.706 238.829V319.523C149.706 341.588 134.772 359.496 116.372 359.496" fill="#212121"/>
</svg>
